Coordinates
version=1
nRows=9
nColumns=42
inDegrees=yes

Units are S.I. units (second, meters, Newtons, ...)
If the header above contains a line with 'inDegrees', this indicates whether rotational values are in degrees (yes) or radians (no).

endheader
time	pelvis_tilt	pelvis_list	pelvis_rotation	pelvis_tx	pelvis_ty	pelvis_tz	hip_flexion_r	hip_adduction_r	hip_rotation_r	knee_angle_r	knee_adduction_r	knee_angle_r_beta	ankle_angle_r	subtalar_angle_r	mtp_angle_r	hip_flexion_l	hip_adduction_l	hip_rotation_l	knee_angle_l	knee_adduction_l	knee_angle_l_beta	ankle_angle_l	subtalar_angle_l	mtp_angle_l	lumbar_extension	lumbar_bending	lumbar_rotation	arm_flex_r	arm_add_r	arm_rot_r	elbow_flex_r	pro_sup_r	wrist_flex_r	wrist_dev_r	arm_flex_l	arm_add_l	arm_rot_l	elbow_flex_l	pro_sup_l	wrist_flex_l	wrist_dev_l
      1.20000000	     15.35262210	      0.65010699	     -8.43149213	      0.35020091	      0.98134055	     -0.09637947	     -9.53306495	     -2.65826120	     -5.90156345	     64.66922543	     -6.61285854	      1.12869091	      4.30876538	     -3.76822169	     -7.58719556	     -2.80825996	      5.35550656	    -12.55646869	     20.19367022	     -1.21559905	      0.35244603	      8.51481431	      9.65313186	     -7.58719556	    -36.51429357	     -2.50540118	      5.98349731	      2.73365042	    -19.57151734	     -2.97302310	     68.16415604	     90.00000001	      0.00000000	      0.00000000	     -2.48858049	    -16.26004641	     -1.61897269	     52.35953429	     90.00000001	      0.00000000	      0.00000000
      1.21000000	     15.67243079	      0.83226562	     -8.07969610	      0.36367671	      0.98410546	     -0.09707543	     -8.27166877	     -2.94712034	     -6.79009197	     64.58415827	     -6.95846817	      1.12720621	      5.79286531	     -2.56676029	     -7.58372911	     -4.77914125	      5.85697635	    -11.71386032	     18.52334357	     -1.06880024	      0.32329333	      8.28835840	      9.68984782	     -7.58372911	    -36.80914057	     -2.38980106	      5.45810655	      2.45421102	    -19.59799670	     -3.28879858	     68.25931030	     90.00000001	      0.00000000	      0.00000000	     -2.07066867	    -16.51453201	     -1.71820108	     53.23721107	     90.00000001	      0.00000000	      0.00000000
      1.22000000	     15.42379625	      0.62319076	     -7.77079198	      0.37652711	      0.98579081	     -0.09729991	     -6.35357430	     -2.55371405	     -7.05912275	     64.32560353	     -7.01165756	      1.12269357	      6.71339739	     -2.62107207	     -7.58253434	     -5.82922019	      5.69850659	    -11.71151608	     17.59906203	     -1.04599937	      0.30716158	      8.43339021	      9.92696600	     -7.58253434	    -36.58399320	     -1.89170541	      5.28221189	      2.19605485	    -19.74589596	     -3.43599941	     68.29037387	     90.00000001	      0.00000000	      0.00000000	     -1.57139819	    -16.67181081	     -1.82807049	     53.97149973	     90.00000001	      0.00000000	      0.00000000
      1.23000000	     15.27381925	      0.53990547	     -7.46586197	      0.38937815	      0.98732427	     -0.09748657	     -4.60083851	     -2.32870386	     -7.25086898	     63.73589098	     -6.93312084	      1.11240115	      7.76756134	     -2.66134803	     -7.58119644	     -7.09029201	      5.70871380	    -11.49864971	     16.38028689	     -0.98628356	      0.28588994	      8.61536389	     10.58611462	     -7.58119644	    -36.44964290	     -1.54585063	      5.05480861	      1.92699574	    -19.82079197	     -3.72060203	     68.35699593	     90.00000001	      0.00000000	      0.00000000	     -1.08768128	    -16.88983426	     -1.95428274	     54.86602140	     90.00000001	      0.00000000	      0.00000000
      1.24000000	     15.45004119	      0.55343773	     -7.11928502	      0.40254227	      0.98905699	     -0.09775172	     -3.35545250	     -2.32412980	     -7.32703726	     62.70272721	     -6.56500133	      1.09436904	      8.61053080	     -2.50388030	     -7.57896693	     -8.80731324	      5.86140853	    -11.35263356	     14.92143265	     -0.93231668	      0.26042813	      8.70027018	     11.70649957	     -7.57896693	    -36.62206625	     -1.31544030	      4.72070571	      1.64130277	    -19.84360634	     -4.10344478	     68.45613727	     90.00000001	      0.00000000	      0.00000000	     -0.61820175	    -17.16932837	     -2.00155121	     55.82681374	     90.00000001	      0.00000000	      0.00000000
      1.25000000	     15.18202115	      0.45581491	     -6.79294664	      0.41529390	      0.98973651	     -0.09792207	     -1.57672282	     -2.06665745	     -7.26350230	     61.58364728	     -6.21450210	      1.07483741	      9.19188156	     -2.63291106	     -7.57771289	     -9.80828012	      5.84477173	    -11.45213771	     13.95746588	     -1.04066653	      0.24360373	      8.92652357	     12.25046402	     -7.57771289	    -36.36198217	     -0.94667604	      4.51369347	      1.39265408	    -19.94027075	     -4.34816151	     68.47783536	     90.00000001	      0.00000000	      0.00000000	     -0.10306624	    -17.39291233	     -2.04492452	     56.69054638	     90.00000001	      0.00000000	      0.00000000
      1.26000000	     15.33753975	      0.42047572	     -6.50201191	      0.42834254	      0.99078989	     -0.09783335	     -0.44471262	     -1.96018878	     -6.77102246	     60.06092204	     -5.43474671	      1.04826084	      9.60750205	     -3.16009281	     -7.57566342	    -11.47701269	      5.85514905	    -11.36057957	     12.58280521	     -0.87461342	      0.21961138	      9.18847969	     13.52313318	     -7.57566342	    -36.52313639	     -0.74391475	      4.30873024	      1.10555829	    -19.93758220	     -4.79197616	     68.56135870	     90.00000001	      0.00000000	      0.00000000	      0.41992010	    -17.70308102	     -1.99375432	     57.70129431	     90.00000001	      0.00000000	      0.00000000
      1.27000000	     15.33917561	      0.32779196	     -6.23542465	      0.44126134	      0.99124566	     -0.09766277	      0.82150839	     -1.74817338	     -6.16821207	     58.36972349	     -4.62225565	      1.01874386	      9.76582492	     -3.90743959	     -7.57366897	    -12.86639187	      5.79689942	    -11.34984788	     11.45453473	     -0.79154605	      0.19991935	      9.50391839	     14.40769246	     -7.57366897	    -36.53124642	     -0.48916065	      4.17086520	      0.84288829	    -19.96027741	     -5.16812207	     68.62289160	     90.00000001	      0.00000000	      0.00000000	      0.98445274	    -17.99880946	     -1.90104779	     58.64697192	     90.00000001	      0.00000000	      0.00000000
      1.28000000	     15.40162586	      0.15011199	     -6.01127539	      0.45413776	      0.99153574	     -0.09726015	      1.91113436	     -1.41118305	     -5.18828406	     56.40437036	     -3.56082832	      0.98444198	      9.35473413	     -5.60055154	     -7.56920072	    -14.29747057	      5.62733821	    -11.41373086	     10.41808068	     -0.67456322	      0.18182981	      9.76179481	     15.05838107	     -7.56920072	    -36.62467566	     -0.20291627	      4.13914887	      0.57546285	    -20.00704781	     -5.53192032	     68.72011858	     90.00000001	      0.00000000	      0.00000000	      1.62514255	    -18.29338344	     -1.73681116	     59.52034707	     90.00000001	      0.00000000	      0.00000000
